Release info:

General
Format                                   : Matroska
Format version                           : Version 4 / Version 2
File size                                : 1.34 GiB
Duration                                 : 1h 40mn
Overall bit rate                         : 1 903 Kbps
Movie name                               : The Haunting in Connecticut 2 Ghosts of Georgia 2013 HDRip English

Video
ID                                       : 1
Format                                   : MPEG-4 Visual
Format profile                           : Advanced Simple@L5
Format settings, BVOP                    : Yes
Format settings, QPel                    : No
Format settings, GMC                     : No warppoints
Format settings, Matrix                  : Default (H.263)
Codec ID                                 : V_MS/VFW/FOURCC / XVID
Codec ID/Hint                            : XviD
Duration                                 : 1h 40mn
Bit rate                                 : 1 481 Kbps
Width                                    : 720 pixels
Height                                   : 304 pixels
Display aspect ratio                     : 2.35:1
Frame rate mode                          : Constant
Frame rate                               : 23.976 fps
Color space                              : YUV
Chroma subsampling                       : 4:2:0
Bit depth                                : 8 bits
Scan type                                : Progressive
Compression mode                         : Lossy
Bits/(Pixel*Frame)                       : 0.282
Stream size                              : 1.04 GiB (78%)
Title                                    : The Haunting in Connecticut 2 Ghosts of Georgia 2013 HDRip English
Writing library                          : XviD 64
Language                                 : English
Default                                  : Yes
Forced                                   : No

Audio
ID                                       : 2
Format                                   : AC-3
Format/Info                              : Audio Coding 3
Mode extension                           : CM (complete main)
Format settings, Endianness              : Big
Codec ID                                 : A_AC3
Duration                                 : 1h 40mn
Bit rate mode                            : Constant
Bit rate                                 : 384 Kbps
Channel(s)                               : 6 channels
Channel positions                        : Front: L C R, Side: L R, LFE
Sampling rate                            : 48.0 KHz
Bit depth                                : 16 bits
Compression mode                         : Lossy
Stream size                              : 277 MiB (20%)
Title                                    : The Haunting in Connecticut 2 Ghosts of Georgia 2013 HDRip English
Language                                 : English
Default                                  : Yes
Forced                                   : No



Source:
credit to original movie ripper AbSurdiTy (Thanks)

IMDB Info:

A young family moves into an historic home in Georgia, only to learn they are not the house's only inhabitants. Soon they find themselves in the presence of a secret rising from underground and threatening to bring down anyone in its path.

Director: Tom Elkins
Writer: David Coggeshall (screenplay)
Stars: Abigail Spencer, Chad Michael Murray, Katee Sackhoff 

Genres: Drama | Horror | Thriller
 
http://www.imdb.com/title/tt1457765/

Screen Shot:
 
http://www.shotpix.com/images/86123271259688425372.png 
http://www.shotpix.com/images/62695069619963312147.png 
http://www.shotpix.com/images/37592713145000068542.png 
http://www.shotpix.com/images/49133340907098364737.png